<svg width="591" height="576" viewBox="0 0 591 576" fill="none" xmlns="http://www.w3.org/2000/svg">
<g clip-path="url(#clip0)">
<path style="mix-blend-mode:multiply" opacity="0.25" d="M394.184 513.198C520.25 509.083 572.819 375.856 560.683 225.17C553.292 133.526 513.383 48.7503 440.724 0H136.5C104.976 20.6047 81.0929 45.7482 62.4216 68.7537C-12.6603 161.25 -22.1718 317.593 45.6875 397.67C113.547 477.748 248.9 517.939 394.184 513.198Z" fill="url(#paint0_linear)"/>
<path opacity="0.25" d="M273.323 541.795C379.974 588.511 527.087 552.983 581.905 463.855C585.132 458.61 588.163 453.178 591 447.559V93.3604C590.736 92.5309 590.474 91.7015 590.207 90.8721C576.098 47.2596 549.342 17.6049 514.579 0H307.145C297.141 3.3024 287.13 6.98035 277.112 11.0339C155.068 60.4892 66.9275 174.947 99.9098 328.09C128.74 461.977 210.659 514.347 273.323 541.795Z" fill="url(#paint1_linear)"/>
<path style="mix-blend-mode:multiply" opacity="0.25" d="M588.458 342.605C589.315 340.147 590.162 337.666 591 335.161V152.454C576.996 128.994 554.562 108.519 520.626 93.1855C405.574 41.1958 127.819 77.7395 47.255 239.902C-18.0309 371.331 76.8175 524.411 193.296 576H363.625C472.128 533.752 559.462 425.627 588.458 342.605Z" fill="url(#paint2_linear)"/>
<path d="M365.396 454C448.483 454 515.839 442.03 515.839 427.264C515.839 412.497 448.483 400.527 365.396 400.527C282.308 400.527 214.952 412.497 214.952 427.264C214.952 442.03 282.308 454 365.396 454Z" fill="#3F3D56"/>
<path d="M265.275 254.15C274.838 239.85 278.99 222.577 276.978 205.462C274.967 188.347 266.925 172.524 254.311 160.862C241.698 149.2 225.348 142.472 208.226 141.897C191.104 141.322 174.344 146.939 160.985 157.729C147.627 168.519 138.554 183.767 135.413 200.709C132.272 217.651 135.27 235.165 143.863 250.074C152.457 264.983 166.077 276.3 182.253 281.973C198.43 287.647 216.092 287.3 232.037 280.997C233.07 284.709 235.003 288.105 237.661 290.881C240.319 293.657 243.621 295.726 247.269 296.904C250.917 298.082 254.799 298.332 258.567 297.63C262.335 296.929 265.871 295.299 268.858 292.885C271.846 290.472 274.192 287.351 275.687 283.802C277.182 280.253 277.778 276.386 277.423 272.548C277.068 268.71 275.773 265.02 273.653 261.81C271.533 258.599 268.654 255.967 265.275 254.15Z" fill="black"/>
<path d="M248.37 199.511H163.153V206.279H248.37V199.511Z" fill="white"/>
<path d="M248.37 210.791H163.153V217.558H248.37V210.791Z" fill="white"/>
<path d="M248.37 222.071H163.153V228.839H248.37V222.071Z" fill="white"/>
<path d="M417.725 200.542C408.162 186.243 404.01 168.97 406.022 151.855C408.033 134.74 416.075 118.917 428.688 107.255C441.302 95.5929 457.652 88.8645 474.774 88.2896C491.896 87.7148 508.656 93.3316 522.015 104.121C535.373 114.911 544.446 130.16 547.587 147.102C550.728 164.044 547.73 181.557 539.137 196.466C530.543 211.375 516.923 222.692 500.747 228.366C484.57 234.039 466.908 233.693 450.963 227.39C449.929 231.101 447.997 234.497 445.339 237.273C442.68 240.049 439.379 242.119 435.731 243.297C432.083 244.475 428.201 244.724 424.433 244.023C420.665 243.322 417.129 241.691 414.142 239.278C411.154 236.865 408.808 233.744 407.313 230.195C405.818 226.645 405.221 222.779 405.577 218.941C405.932 215.103 407.227 211.413 409.347 208.202C411.467 204.991 414.346 202.36 417.725 200.542Z" fill="black"/>
<path d="M434.63 152.671H519.847V145.903H434.63V152.671Z" fill="white"/>
<path d="M434.63 163.951H519.847V157.183H434.63V163.951Z" fill="white"/>
<path d="M434.63 175.231H519.847V168.463H434.63V175.231Z" fill="white"/>
<path d="M293.325 397.798C287.987 389.814 285.669 380.171 286.792 370.616C287.915 361.061 292.404 352.227 299.446 345.716C306.488 339.206 315.616 335.449 325.175 335.128C334.734 334.807 344.091 337.943 351.549 343.967C359.007 349.991 364.072 358.504 365.826 367.962C367.579 377.421 365.906 387.198 361.108 395.522C356.31 403.845 348.707 410.164 339.675 413.331C330.644 416.498 320.784 416.305 311.882 412.786C311.305 414.858 310.226 416.754 308.742 418.304C307.258 419.854 305.415 421.009 303.378 421.667C301.341 422.325 299.174 422.464 297.071 422.072C294.967 421.681 292.993 420.77 291.325 419.423C289.657 418.076 288.347 416.333 287.513 414.352C286.678 412.371 286.345 410.212 286.543 408.069C286.741 405.926 287.465 403.867 288.648 402.074C289.832 400.281 291.439 398.812 293.325 397.798Z" fill="black"/>
<path d="M310.802 379.077C313.358 379.077 315.431 376.992 315.431 374.421C315.431 371.849 313.358 369.765 310.802 369.765C308.246 369.765 306.174 371.849 306.174 374.421C306.174 376.992 308.246 379.077 310.802 379.077Z" fill="white"/>
<path d="M326.593 379.077C329.149 379.077 331.221 376.992 331.221 374.421C331.221 371.849 329.149 369.765 326.593 369.765C324.037 369.765 321.965 371.849 321.965 374.421C321.965 376.992 324.037 379.077 326.593 379.077Z" fill="white"/>
<path d="M342.384 379.077C344.94 379.077 347.012 376.992 347.012 374.421C347.012 371.849 344.94 369.765 342.384 369.765C339.828 369.765 337.756 371.849 337.756 374.421C337.756 376.992 339.828 379.077 342.384 379.077Z" fill="white"/>
<path d="M331.228 229.978C331.228 229.978 351.879 230.543 355.289 231.791C358.7 233.039 360.225 241.966 360.225 241.966L344.191 247.035L332.198 246.352L323.173 246.994L328.212 233.716L331.228 229.978Z" fill="#2F2E41"/>
<path d="M332.119 223.161C332.119 223.161 333.477 228.44 330.462 232.178C327.447 235.916 343.425 249.235 343.425 249.235L351.855 247.778C351.855 247.778 349.997 231.557 352.492 227.45C354.988 223.342 332.119 223.161 332.119 223.161Z" fill="#9F616A"/>
<path opacity="0.1" d="M332.119 223.161C332.119 223.161 333.477 228.44 330.462 232.178C327.447 235.916 343.425 249.235 343.425 249.235L351.855 247.778C351.855 247.778 349.997 231.557 352.492 227.45C354.988 223.342 332.119 223.161 332.119 223.161Z" fill="black"/>
<path d="M388.179 377.508L369.58 402.32L382.273 409.775L399.742 381.022L388.179 377.508Z" fill="#9F616A"/>
<path d="M375.133 402.738C375.133 402.738 368.284 394.733 368.589 396.518C368.894 398.303 363.716 413.443 368.533 414.907C373.351 416.372 414.667 420.256 415.235 415.563C415.803 410.869 402.91 407.585 402.91 407.585C402.91 407.585 395.25 400.179 393.551 400.932C391.853 401.685 375.133 402.738 375.133 402.738Z" fill="#2F2E41"/>
<path d="M384.006 401.204L398.862 426.664L410.077 420.13L395.097 399.286L384.006 401.204Z" fill="#9F616A"/>
<path d="M407.457 340.632L403.048 346.908C403.048 346.908 382.03 376.274 384.262 378.645C386.495 381.016 395.79 389.977 400.518 388.24C405.246 386.504 422.042 356.489 422.042 356.489L417.661 338.867L407.457 340.632Z" fill="#2F2E41"/>
<path d="M316.917 334.69C316.917 334.69 321.624 343.525 333.554 346.517C345.484 349.509 357.948 355.624 358.392 355.548C358.835 355.471 360.09 354.795 360.395 356.58C360.7 358.365 363.972 361.475 363.972 361.475C363.972 361.475 377.15 406.525 382.183 406.573C387.216 406.622 397.558 402.996 397.773 401.58C397.988 400.165 382.363 354.16 382.211 353.267L380.38 342.556C380.38 342.556 401.045 345.875 402.972 346.461C404.899 347.047 422.042 356.489 422.042 356.489C422.042 356.489 439.518 343.818 423.172 331.021C406.826 318.225 378.73 308.839 378.73 308.839L368.651 305.986L359.867 305.459L358.573 300.469L337.769 301.677L316.057 310.945L316.917 334.69Z" fill="#2F2E41"/>
<path d="M344.375 233.669C353.325 233.669 360.58 226.37 360.58 217.366C360.58 208.362 353.325 201.063 344.375 201.063C335.424 201.063 328.169 208.362 328.169 217.366C328.169 226.37 335.424 233.669 344.375 233.669Z" fill="#9F616A"/>
<path d="M329.713 230.469L331.662 230.132C331.662 230.132 335.183 243.768 346.073 246.02C346.073 246.02 351.447 239.545 351.217 238.452C350.988 237.359 355.473 231.529 357.858 234.793C360.242 238.056 357.276 295.547 359.279 296.579C361.282 297.611 365.58 298.706 362.121 302.52C358.662 306.335 344.923 311.468 341.879 309.696C338.836 307.925 332.618 292.918 329.928 287.869C327.239 282.82 322.934 265.644 322.934 265.644C322.934 265.644 317.437 246.836 320.82 242.575C324.202 238.315 329.713 230.469 329.713 230.469Z" fill="#D0CDE1"/>
<path d="M345.223 301.246C344.861 305.251 344.241 309.228 343.367 313.152C342.572 316.344 341.647 318.272 340.591 318.19C337.896 317.987 336.671 321.963 336.04 326.547C335.365 331.41 335.365 336.957 334.994 338.918C334.505 341.508 331.369 343.485 325.103 342.905C321.372 342.478 317.709 341.574 314.205 340.216C305.745 337.122 305.996 312.029 307.411 293.41C308.277 281.997 309.578 273.011 309.578 273.011C309.578 273.011 307.008 265.3 306.186 260.015C306.023 259.051 305.941 258.075 305.941 257.096C306.067 252.48 314.444 240.005 319.507 232.234C324.575 224.463 331.489 230.164 331.489 230.164L329.083 237.469C329.083 237.469 332.812 243.258 332.839 248.767C332.866 254.276 341.766 258.252 344.962 260.919C346.971 262.595 346.922 284.965 345.223 301.246Z" fill="#2F2E41"/>
<path d="M352.26 232.774C352.26 232.774 352.844 233.469 355.518 233.13C358.725 232.724 363.134 233.84 364.159 236.92C366.037 242.569 371.334 265.547 371.334 265.547C371.334 265.547 373.538 291.816 374.529 297.618C375.521 303.42 375.029 308.56 376.006 311.607C376.983 314.655 366.356 305.924 362.44 307.061C358.523 308.197 356.007 293.469 356.499 288.33C356.991 283.19 357.407 277.604 356.048 272.325C354.69 267.046 357.098 253.075 357.008 249.874C356.918 246.673 348.372 238.605 352.26 232.774Z" fill="#2F2E41"/>
<path d="M363.727 314.419C363.727 314.419 380.885 323.837 382.528 337.24C384.17 350.644 359.577 324.262 359.577 324.262L363.727 314.419Z" fill="#9F616A"/>
<path d="M373.521 304.915C373.521 304.915 378.779 331.575 386.97 330.159C395.16 328.743 382.395 303.38 382.395 303.38L373.521 304.915Z" fill="#9F616A"/>
<path d="M401.572 421.141C401.572 421.141 397.378 426.002 396.338 425.263C395.298 424.523 392.907 434.586 395.063 436.511C397.219 438.436 405.523 441.595 405.613 444.796C405.703 447.996 427.976 447.362 428.773 444.008C429.571 440.653 425.98 433.003 423.456 431.602C420.933 430.2 411.603 417.299 411.603 417.299C411.603 417.299 404.296 418.373 401.572 421.141Z" fill="#2F2E41"/>
<path opacity="0.1" d="M360.994 330.725C357.014 327.899 345.904 327.198 336.04 326.547C331.712 326.267 327.624 325.993 324.483 325.55C321.456 325.128 318.734 322.346 316.317 318.201C312.653 311.919 309.692 302.5 307.411 293.409C308.277 281.997 309.578 273.01 309.578 273.01C309.578 273.01 307.008 265.3 306.186 260.015C306.766 259.204 307.512 258.528 308.375 258.033C318.837 253.515 328.827 297.977 330.095 304.953C330.117 305.068 330.133 305.178 330.15 305.271C330.765 308.864 337.411 311.936 343.367 313.151C347.036 313.902 350.449 313.951 352.022 312.976C356.154 310.424 368.86 320.638 369.823 320.928C370.787 321.224 366.709 334.794 360.994 330.725Z" fill="black"/>
<path d="M308.376 255.296C308.376 255.296 300.772 258.908 304.113 275.791C307.455 292.674 314.186 321.377 324.48 322.814C334.774 324.25 355.272 323.923 360.991 327.988C366.71 332.054 370.786 318.483 369.823 318.19C368.859 317.897 356.152 307.688 352.021 310.24C347.889 312.793 331.142 308.337 330.15 302.535C329.159 296.733 319.01 250.7 308.376 255.296Z" fill="#2F2E41"/>
<path d="M363.175 247.199L371.532 266.708C371.532 266.708 372.373 266.286 373.351 269.333C374.328 272.381 374.786 275.059 376.498 277.06C378.21 279.062 385.829 307.611 386.058 308.95C386.286 310.289 375.535 314.905 373.133 311.185C370.731 307.465 363.175 247.199 363.175 247.199Z" fill="#2F2E41"/>
<path d="M335.155 217.14C335.776 216.973 335.867 216.143 335.888 215.497C335.999 212.036 338.071 208.484 341.364 207.476C342.628 207.128 343.951 207.054 345.246 207.262C347.093 207.509 348.877 208.108 350.502 209.026C351.36 209.511 352.201 210.095 353.174 210.243C353.816 210.341 356.599 211.155 357.239 211.269C358.645 211.521 359.953 212.787 361.303 212.316C362.594 211.865 362.88 210.183 362.911 208.808C362.982 205.676 360.619 201.341 358.537 199.011C356.957 197.243 354.578 196.427 352.253 196.002C349.537 195.563 346.784 195.395 344.035 195.499C340.313 195.566 336.489 195.855 333.133 197.475C329.777 199.095 326.959 202.319 326.798 206.059C326.764 206.839 326.844 207.621 326.779 208.398C326.62 210.294 325.619 212.007 325.15 213.85C324.814 215.203 324.764 216.611 325.003 217.984C325.241 219.357 325.763 220.664 326.535 221.822C327.78 223.666 329.737 225.333 329.665 227.561L332.366 224.747C332.769 224.437 333.055 223.998 333.175 223.502C333.295 223.006 333.242 222.483 333.025 222.022L332.069 218.271C331.824 217.601 331.795 216.871 331.987 216.184C333.011 213.637 334.119 217.418 335.155 217.14Z" fill="#2F2E41"/>
<path d="M457.879 404.707C457.767 404.523 455.128 400.091 454.213 390.887C453.374 382.442 453.914 368.209 461.251 348.354C475.153 310.741 458.048 280.392 457.873 280.09L458.717 279.598C458.761 279.674 463.175 287.412 465.782 299.733C469.227 316.068 467.973 333.053 462.166 348.696C448.288 386.245 458.605 404.021 458.711 404.196L457.879 404.707Z" fill="#3F3D56"/>
<path d="M452.443 277.882C455.944 277.882 458.783 275.026 458.783 271.504C458.783 267.982 455.944 265.126 452.443 265.126C448.942 265.126 446.104 267.982 446.104 271.504C446.104 275.026 448.942 277.882 452.443 277.882Z" fill="black"/>
<path d="M472.437 301.429C475.939 301.429 478.777 298.574 478.777 295.052C478.777 291.53 475.939 288.674 472.437 288.674C468.936 288.674 466.098 291.53 466.098 295.052C466.098 298.574 468.936 301.429 472.437 301.429Z" fill="#3F3D56"/>
<path d="M458.783 317.128C462.284 317.128 465.122 314.273 465.122 310.751C465.122 307.228 462.284 304.373 458.783 304.373C455.281 304.373 452.443 307.228 452.443 310.751C452.443 314.273 455.281 317.128 458.783 317.128Z" fill="black"/>
<path d="M475.363 330.374C478.864 330.374 481.703 327.518 481.703 323.996C481.703 320.474 478.864 317.619 475.363 317.619C471.862 317.619 469.023 320.474 469.023 323.996C469.023 327.518 471.862 330.374 475.363 330.374Z" fill="black"/>
<path d="M453.906 350.978C457.407 350.978 460.246 348.122 460.246 344.6C460.246 341.078 457.407 338.223 453.906 338.223C450.405 338.223 447.566 341.078 447.566 344.6C447.566 348.122 450.405 350.978 453.906 350.978Z" fill="#3F3D56"/>
<path d="M461.709 404.942C461.709 404.942 455.369 389.243 474.388 377.469L461.709 404.942Z" fill="#3F3D56"/>
<path d="M453.912 404.657C453.912 404.657 451.027 387.963 428.696 388.106L453.912 404.657Z" fill="#3F3D56"/>
</g>
<defs>
<linearGradient id="paint0_linear" x1="281.193" y1="513.576" x2="281.193" y2="0" gradientUnits="userSpaceOnUse">
<stop stop-color="#7094FB"/>
<stop offset="1" stop-color="#F31E61"/>
</linearGradient>
<linearGradient id="paint1_linear" x1="760602" y1="1.37283e+06" x2="760602" y2="0" gradientUnits="userSpaceOnUse">
<stop stop-color="#7094FB"/>
<stop offset="1" stop-color="#F31E61"/>
</linearGradient>
<linearGradient id="paint2_linear" x1="96.0174" y1="503.551" x2="566.274" y2="119.99" gradientUnits="userSpaceOnUse">
<stop stop-color="#F31E61"/>
<stop offset="1" stop-color="#7094FB"/>
</linearGradient>
<clipPath id="clip0">
<rect width="591" height="576" fill="white"/>
</clipPath>
</defs>
</svg>
