<svg xmlns="http://www.w3.org/2000/svg" xmlns:xlink="http://www.w3.org/1999/xlink" viewBox="0 0 2638.89 2500"><defs><style>.cls-1{isolation:isolate;}.cls-2,.cls-3,.cls-4{opacity:0.25;}.cls-2,.cls-4{mix-blend-mode:multiply;}.cls-2{fill:url(#Безымянный_градиент_108);}.cls-3{fill:url(#Безымянный_градиент_108-2);}.cls-4{fill:url(#Безымянный_градиент_122);}.cls-5{fill:#82b378;}.cls-6{fill:#a8d29f;}.cls-7{fill:#fcecdb;}.cls-8{fill:#78acea;}.cls-9{fill:#afcdfb;}.cls-10{fill:#5e92dd;opacity:0.4;}.cls-11{fill:#95c0f4;}.cls-12{fill:#d2e3fc;}.cls-13{fill:#8cbaf1;}.cls-14{fill:#c0d8fb;}.cls-15{fill:#fffbf8;}.cls-16{fill:#699dee;}.cls-17{fill:#f99746;}.cls-18{fill:#ffb176;}.cls-19{fill:#b25918;}.cls-20{fill:#ffb27d;}.cls-21{fill:#233862;}.cls-22{fill:#ed7d2b;}.cls-23{fill:#2a4e96;}.cls-24{fill:#ed985f;}.cls-25{fill:#2c3a64;}.cls-26{fill:#ffe4cc;}.cls-27{fill:#f77548;}.cls-28{fill:#b5453c;}.cls-29{fill:#efcbab;}.cls-30{fill:#ff7d5a;}.cls-31{fill:#fff;}.cls-32{fill:#2e3552;}</style><linearGradient id="Безымянный_градиент_108" x1="1255.56" y1="2229.06" x2="1255.56" gradientUnits="userSpaceOnUse"><stop offset="0" stop-color="#7094fb"/><stop offset="1" stop-color="#f31e61"/></linearGradient><linearGradient id="Безымянный_градиент_108-2" x1="1526.93" y1="2441" x2="1526.93" y2="0" xlink:href="#Безымянный_градиент_108"/><linearGradient id="Безымянный_градиент_122" x1="428.73" y1="2185.55" x2="2480.65" y2="463.78" gradientUnits="userSpaceOnUse"><stop offset="0" stop-color="#f31e61"/><stop offset="1" stop-color="#7094fb"/></linearGradient></defs><g class="cls-1"><g id="Layer_2" data-name="Layer 2"><g id="_Layer_" data-name="&lt;Layer&gt;"><path class="cls-2" d="M1760.08,2227.42c562.9-17.86,797.63-596.1,743.44-1250.12-33-397.76-211.2-765.71-535.63-977.3H609.49C468.73,89.43,362.09,198.56,278.72,298.41-56.53,699.87-99,1378.44,204,1726S1111.37,2248,1760.08,2227.42Z"/><path class="cls-3" d="M1220.42,2351.54c476.21,202.76,1133.09,48.56,1377.86-338.28q21.61-34.15,40.61-70.73V405.21c-1.18-3.6-2.35-7.2-3.54-10.8-63-189.29-182.47-318-337.69-394.41H1371.44q-67,21.5-134.1,47.89C692.4,262.54,298.84,759.32,446.11,1424,574.84,2005.11,940.62,2232.41,1220.42,2351.54Z"/><path class="cls-4" d="M2627.54,1487q5.74-16,11.35-32.31v-793c-62.53-101.82-162.7-190.69-314.23-257.24C1810.94,178.8,570.73,337.41,211,1041.24-80.51,1611.68,343,2276.09,863.09,2500h760.54C2108.11,2316.63,2498.07,1847.34,2627.54,1487Z"/></g><g id="Слой_1" data-name="Слой 1"><path class="cls-5" d="M1495.38,1652.89s-51.32-59.87-3.16-97.9c0,0,35.17-21.29,63.85-19.57,0,0-40.64,68.15-27.49,74.93s39.81-79.2,39.81-79.2,80-7.76,105.8,4.62c0,0-68.43,56-54,59.33s88.32-51.63,88.32-51.63,74.51,12.68,70.53,58.12-29.64,59.49-40.92,58.28-77.28-26.41-78.72-17.16,38.29,39.46,66.11,40.87c0,0-52.53,57.92-87.43,41.21s-37.89-43.22-59.65-53.16-40.34-9.91-31.35.22,48.36,20,60.81,42,23.61,36.86-12.51,31.43-94.82-31.86-97.4-62.13Z"/><path class="cls-5" d="M1742.42,1602.82s-202.35-7.8-247,50.07c0,0-9.88,29.6-40.29,56.55l-4.74,12.92s35.06-37,47.61-39.21C1498,1683.15,1478.34,1611.46,1742.42,1602.82Z"/><path class="cls-5" d="M1455.09,1709.44s-43.43,32.12-46.45,89.52l7.88.7s13.87-59.34,39-82.55S1455.09,1709.44,1455.09,1709.44Z"/><path class="cls-6" d="M966.63,1163.81s78.5-44,41.87-103.62c0,0-29.31-36.63-60.71-46.05,0,0,16.74,89,0,91.06s-11.52-100.48-11.52-100.48-82.69-39.78-115.13-36.64c0,0,51.28,86.88,34.54,84.78s-74.32-90-74.32-90-84.78-15.7-98.39,34.54,8.38,75.36,20.94,78.5,93.15,2.09,91.06,12.56-56.52,27.22-86.88,17.8c0,0,33.5,82.68,77.46,78.5s57.57-31.4,84.78-33.5,47.1,5.24,33.5,12.56-59.67,2.4-81.65,21.09-39.77,30.2,1.05,38.58,114.09,3.14,128.74-28.27Z"/><path class="cls-5" d="M721.7,1013.09s219.81,71.17,244.93,150.72c0,0-1,35.59,20.93,76.41v15.7s-23-53.38-35.59-60.71C952,1195.21,1001.17,1126.13,721.7,1013.09Z"/><path class="cls-5" d="M987.56,1240.22s33.9,51.48,14.57,114.14l-8.72-2.34s8.47-69-9.27-103.73S987.56,1240.22,987.56,1240.22Z"/><path class="cls-6" d="M1445.83,1514.55s-107.62-60.27-57.4-142c0,0,40.18-50.22,83.23-63.14,0,0-23,122,0,124.84s15.78-137.75,15.78-137.75,113.35-54.52,157.83-50.22c0,0-70.31,119.09-47.35,116.22s101.87-123.39,101.87-123.39,116.23-21.53,134.88,47.35S1823.19,1389.72,1806,1394s-127.7,2.87-124.83,17.22,77.48,37.3,119.09,24.39c0,0-45.91,113.35-106.17,107.61s-78.92-43-116.23-45.91-64.57,7.17-45.91,17.22,81.78,3.29,111.92,28.9,54.52,41.4-1.44,52.88-156.4,4.31-176.49-38.74Z"/><path class="cls-5" d="M1781.58,1307.93s-301.32,97.57-335.75,206.62c0,0,1.43,48.78-28.7,104.74v21.52s31.57-73.17,48.78-83.22C1465.91,1557.59,1398.48,1462.89,1781.58,1307.93Z"/><path class="cls-5" d="M1417.13,1619.29s-46.47,70.56-20,156.46l12-3.21s-11.61-94.61,12.71-142.19S1417.13,1619.29,1417.13,1619.29Z"/><path class="cls-7" d="M1515.76,1517.93H1414a5.14,5.14,0,0,1-5.12-5.12h0a5.13,5.13,0,0,1,5.12-5.11h101.76a5.13,5.13,0,0,1,5.12,5.11h0A5.13,5.13,0,0,1,1515.76,1517.93Z"/><path class="cls-7" d="M1515.76,1538H1414a5.14,5.14,0,0,1-5.12-5.12h0a5.14,5.14,0,0,1,5.12-5.12h101.76a5.13,5.13,0,0,1,5.12,5.12h0A5.14,5.14,0,0,1,1515.76,1538Z"/><path class="cls-8" d="M1537.19,672.77V1774.6a31.52,31.52,0,0,1-30.6,31.41H954.8a31.51,31.51,0,0,1-31.41-31.42V672.77a31.5,31.5,0,0,1,31.41-31.41h551A31.5,31.5,0,0,1,1537.19,672.77Z"/><path class="cls-9" d="M1569.64,672.77V1774.61a31.52,31.52,0,0,1-31.43,31.4h-551a31.5,31.5,0,0,1-31.41-31.4V672.77a31.5,31.5,0,0,1,31.41-31.41h551A31.51,31.51,0,0,1,1569.64,672.77Z"/><path class="cls-10" d="M1352.68,685.44H1193.12a6.22,6.22,0,0,1-6.2-6.2h0a6.22,6.22,0,0,1,6.2-6.21h159.56a6.22,6.22,0,0,1,6.21,6.21h0A6.22,6.22,0,0,1,1352.68,685.44Z"/><path class="cls-10" d="M1164.79,685.44h0a6.22,6.22,0,0,1-6.21-6.2h0a6.22,6.22,0,0,1,6.21-6.21h0a6.22,6.22,0,0,1,6.2,6.21h0A6.22,6.22,0,0,1,1164.79,685.44Z"/><path class="cls-11" d="M1310.37,1741.66a40,40,0,1,1-40-40A39.87,39.87,0,0,1,1310.37,1741.66Z"/><rect class="cls-12" x="992.59" y="713.1" width="544.29" height="968.83"/><path class="cls-13" d="M1298.76,1769.84a40,40,0,1,1-49.89-62C1252.8,1724.91,1264.43,1753.42,1298.76,1769.84Z"/><path class="cls-14" d="M1537.19,791.57V1172.7H1018.77c-5.8,0-10.56-5-10.56-11.22V802.8c0-6.18,4.76-11.23,10.56-11.23Z"/><path class="cls-14" d="M1389.34,1249.33V1608c0,6.16-4.3,11.21-9.55,11.21H992.59V1238.1h387.2C1385,1238.1,1389.34,1243.15,1389.34,1249.33Z"/><path class="cls-15" d="M1775.38,771.11v358.68a11.26,11.26,0,0,1-11.24,11.21H1037.77a11.25,11.25,0,0,1-11.21-11.21V771.11a11.26,11.26,0,0,1,11.21-11.24h726.37A11.26,11.26,0,0,1,1775.38,771.11Z"/><path class="cls-16" d="M1775.38,771.1v358.69c0,6.16-5.88,11.22-13.06,11.22H1401V759.87h361.36C1769.5,759.87,1775.38,764.92,1775.38,771.1Z"/><path class="cls-7" d="M1615.18,809.48h-136a4.08,4.08,0,0,1-4.07-4.07h0a4.08,4.08,0,0,1,4.07-4.07h136a4.08,4.08,0,0,1,4.07,4.07h0A4.08,4.08,0,0,1,1615.18,809.48Z"/><path class="cls-7" d="M1615.18,825.16h-136a4.08,4.08,0,0,1-4.07-4.07h0a4.08,4.08,0,0,1,4.07-4.07h136a4.08,4.08,0,0,1,4.07,4.07h0A4.08,4.08,0,0,1,1615.18,825.16Z"/><rect class="cls-7" x="1446.29" y="800.46" width="13.09" height="9.9" rx="4.73"/><path class="cls-7" d="M1615.18,867.23h-136a4.08,4.08,0,0,1-4.07-4.07h0a4.08,4.08,0,0,1,4.07-4.07h136a4.08,4.08,0,0,1,4.07,4.07h0A4.08,4.08,0,0,1,1615.18,867.23Z"/><path class="cls-7" d="M1615.18,882.92h-136a4.08,4.08,0,0,1-4.07-4.07h0a4.08,4.08,0,0,1,4.07-4.07h136a4.08,4.08,0,0,1,4.07,4.07h0A4.08,4.08,0,0,1,1615.18,882.92Z"/><rect class="cls-7" x="1446.29" y="858.21" width="13.09" height="9.9" rx="4.73"/><path class="cls-7" d="M1615.18,924.34h-136a4.08,4.08,0,0,1-4.07-4.07h0a4.08,4.08,0,0,1,4.07-4.07h136a4.08,4.08,0,0,1,4.07,4.07h0A4.08,4.08,0,0,1,1615.18,924.34Z"/><path class="cls-7" d="M1615.18,940h-136a4.08,4.08,0,0,1-4.07-4.07h0a4.09,4.09,0,0,1,4.07-4.07h136a4.09,4.09,0,0,1,4.07,4.07h0A4.08,4.08,0,0,1,1615.18,940Z"/><rect class="cls-7" x="1446.29" y="915.32" width="13.09" height="9.9" rx="4.73"/><path class="cls-15" d="M1416.71,1211.62v358.69a11.26,11.26,0,0,1-11.23,11.22H679.12a11.26,11.26,0,0,1-11.24-11.22V1211.62a11.26,11.26,0,0,1,11.24-11.21h726.36A11.25,11.25,0,0,1,1416.71,1211.62Z"/><path class="cls-16" d="M1416.71,1211.63v358.68a11.26,11.26,0,0,1-11.22,11.23H1082.42V1200.4h323.07A11.26,11.26,0,0,1,1416.71,1211.63Z"/><path class="cls-17" d="M765.34,1262.62a40.28,40.28,0,1,0,40.28,40.28A40.27,40.27,0,0,0,765.34,1262.62Zm27.9,41.57h-27.9a1.28,1.28,0,0,1-1.28-1.29v-30a1.29,1.29,0,0,1,2.57,0v28.71h26.61a1.29,1.29,0,0,1,0,2.58Z"/><path class="cls-17" d="M761.32,1418.52a36.25,36.25,0,0,0-36.25,36.25c0,20,36.25,64.55,36.25,64.55s36.26-44.52,36.26-64.55A36.25,36.25,0,0,0,761.32,1418.52Zm0,52.83a16.95,16.95,0,1,1,16.95-16.94A16.94,16.94,0,0,1,761.32,1471.35Z"/><path class="cls-7" d="M964.92,1440.83H833a6.1,6.1,0,0,1-6.08-6.08h0a6.1,6.1,0,0,1,6.08-6.08h132a6.1,6.1,0,0,1,6.08,6.08h0A6.1,6.1,0,0,1,964.92,1440.83Z"/><rect class="cls-7" x="826.88" y="1451.96" width="109.02" height="12.17" rx="5.81"/><path class="cls-7" d="M964.92,1297.34H833a6.11,6.11,0,0,1-6.08-6.09h0a6.1,6.1,0,0,1,6.08-6.08h132a6.1,6.1,0,0,1,6.08,6.08h0A6.11,6.11,0,0,1,964.92,1297.34Z"/><rect class="cls-7" x="826.88" y="1308.46" width="109.02" height="12.17" rx="5.81"/><polygon class="cls-18" points="1416.71 1372.17 1416.71 1310.4 1285.06 1256.16 1082.42 1297.84 1082.42 1381.28 1197.41 1428.18 1197.54 1428.24 1416.71 1372.2 1416.71 1372.17"/><polygon class="cls-19" points="1197.2 1428.24 1197.2 1465.04 1082.42 1415.21 1082.42 1381.36 1197.2 1428.24"/><polygon class="cls-17" points="1416.71 1372.17 1197.41 1428.18 1197.2 1428.24 1197.2 1465.04 1416.71 1405.11 1416.71 1372.2 1416.71 1372.17"/><path class="cls-20" d="M1696.28,899.43c-.75-.45-1.79-1-3-1.72h0l-19.66-16.05s-2.49,1.43,0,4.14c.32.35.76.81,1.27,1.34l-7.51-5.87a3.19,3.19,0,0,0-.46,3.43c.61,1.51,7.65,7.52,11.61,10.81-2.39-1.14-5.74-3.67-10.76-8.7-3.12-3.14-2.11,1.59-1.63,3.66.84,3.67,10.61,16,14,21.6s5.15,11,2.75,8.65-15.45-10.44-16.82-8.65,6.52,8.65,10.3,14.14,7.89,14.77,21.28,16.83,15.69-4.71,15.69-4.71S1702.46,903.21,1696.28,899.43Z"/><path class="cls-20" d="M2110.12,1234s-3.26,31.72-6.84,37.72-20.23,23.43-25.32,28.94c-.35.38-3.66-2.54-1.15-6.77,10.09-17,7.28-13,3.79-24.14-1.73-5.54-2.8,10.39-5.66,10.77s-1.85-16.8-2-22,14.34-7.68,16.05-26.53C2090.13,1219.83,2110.12,1234,2110.12,1234Z"/><path class="cls-21" d="M2010.65,908.54s-26.38,129.46-171.53,171.75c-45.3,13.21-148.24-136-148.24-136s3.62-13.75,26.29-10.6c0,0,100.23,66.36,112.85,73.56,11.19,6.4,84.82-82.21,118.39-96.51S2010.65,908.54,2010.65,908.54Z"/><path class="cls-21" d="M2183.93,1722.34s18,16.44,14.5,28.11-19.77,19.46-22,33.73-11,22.06-18.89,22.06h-37.69s-5.81-10,8.24-13.07,19.35-19.8,18.47-35.37,1.32-36.32,1.32-36.32l29.87-6.92Z"/><path class="cls-21" d="M1963,1764.84s3.23,37.4-4.68,41.29l-101.16-.2s0-11.68,16.24-14.27,44.8-12.11,49.63-33.3S1963,1764.84,1963,1764.84Z"/><path class="cls-17" d="M1877.61,1236.57s5.34,65.56,11.61,144.36c8.52,107,18.77,238.52,19.79,263.43,1.75,43.25,8.79,112.44,8.79,112.44s16.68,16.43,50.06,9.51c0,0,29.75-98.77,38.25-203.27.13-1.71.26-3.43.4-5.16,7.9-106.38,20.19-330.39,20.19-330.39Z"/><path class="cls-22" d="M1877.61,1236.57s5.34,65.56,11.61,144.36L2006.11,1563c.13-1.71.26-3.43.4-5.16,7.9-106.38,20.19-330.39,20.19-330.39Z"/><path class="cls-17" d="M1902,1244.36s96.18,237.41,159.42,349,83,142.7,83,142.7,36.23-14.27,39.52-24c0,0-24.18-215.39-66.53-267.89-23.93-29.67-52.05-118.71-53.36-149.84s-8.57-92.76-8.57-92.76Z"/><path class="cls-20" d="M2028.53,878.49s-65.08,31.4-102.6,19.75a88.61,88.61,0,0,1,25.4-20.32c-1.3-7.53-2.31-14.06-2.89-19.6a182,182,0,0,1-1.58-20l25.1-19.74,23.81-18.9C1993.9,852.78,2028.53,878.49,2028.53,878.49Z"/><path class="cls-23" d="M2062.82,1213.7c.14,4-8.37,8.53-12.12,10.23-27.84,12.23-53.82,20.75-83.26,23.59-34.77,3.55-75.9-4.26-90-4a5.89,5.89,0,0,1-3.9-1.56c-1-.71-1.73-42.62-1-95.34,0-2.12,0-4.25.15-6.38v-.72c.29-20.6,1-42.19,2-63.79,2-47.46,5.78-93.21,12.12-118.5,7.64-29.83,25-49.58,40.7-63.94l13-11.36c13,2.56,26.7,1.84,40.41-4.83,15-7.24,31.17-15.06,33.76-13.07,19.63,14.35,32.9,46.6,40,87.81,0,.2.07.4.1.61a457,457,0,0,1,5.81,77.52c0,10.24-.29,20.75-.86,31.12-2.9,47-1,88.82.93,117.8.37,5.73.76,10.95,1.08,15.62C2062.24,1202.77,2062.68,1209.16,2062.82,1213.7Z"/><path class="cls-21" d="M2060.58,1178.91c-107.87-124.55-40.95-215.06-40.95-215.06l35.07-11.38a457,457,0,0,1,5.81,77.52c0,10.24-.29,20.75-.86,31.12C2056.75,1108.1,2058.69,1149.93,2060.58,1178.91Z"/><path class="cls-24" d="M1996.2,820s-16.45,30-47.76,38.36a182,182,0,0,1-1.58-20l25.1-19.74Z"/><path class="cls-20" d="M1935.41,837.42s62.08,10.15,67.91-28,17.76-62.56-21.63-70.66-49.33,5.33-54.42,17.6S1919.41,833.79,1935.41,837.42Z"/><path class="cls-25" d="M2025.88,734.18c.56-.64,1.86-1.16,4.75-1.32a11.64,11.64,0,0,0-5.4-1.52c-.6-4-2.74-11.15-9.67-12.88a8.71,8.71,0,0,1,4.21,6.26c-8-8.23-25.2-14.23-72.78-10.47-62.7,5-42,45.1-33.92,49.88s28.55-8.33,43.68-7.13,18,23,23.13,26,3.11-2.3,10-5.44,7.61,8.36,5.6,15.84,7.53,17.35,7.53,17.35l9.64-10.38c9.64-10.38,18.73-54.35,14.34-63.73Z"/><path class="cls-23" d="M2014.6,863.73s39.28,18.6,58.11,47.2c29.21,44.35,63.08,206,63.7,221s-24.71,120.65-24.71,120.65-25.71-1.69-32.33-14.66c0,0,5.13-108.59,1.88-115.57s-107.15-145.65-95.47-175.24S2014.6,863.73,2014.6,863.73Z"/><path class="cls-20" d="M2103.28,1271.72l-18.6,31.1a3.07,3.07,0,0,1-1.87-3.16c.35-2.22,5.73-19.06,5.73-19.06Z"/><path class="cls-20" d="M2084.65,1272.62s-13.4,15.29-10.43,18.74l9.68-7.48Z"/><path class="cls-5" d="M1246.12,1310.49a16.84,16.84,0,0,0-10.8,2S1242.46,1314.93,1246.12,1310.49Z"/><path class="cls-26" d="M1237.13,1290.27c-43.72,3.15-83.4,5.73-111.23,14.91-25.62,8.45-41.31,19.82-41.31,32.33,0,13.89,17.05,28.76,50.26,35,27.92,5.27,71.87,16.08,102.28,12.19,38.16-4.88,72.07-4.21,98.66-11.21l-12.33-4.51-86.16-31.5,138.78,3.83,13,.36a15.36,15.36,0,0,0,.59-4.19c0-13.39-18-25.47-46.85-34.06C1315.42,1295.29,1278.06,1287.32,1237.13,1290.27Z"/><path class="cls-27" d="M1376.08,1341.34l-138.78-3.83,86.16,31.5c-8.55,1.94-17.91,3.59-27.9,4.91-17.73,2.35-38.25.74-58.26,3.66-33.16,4.83-63.77-6.26-88.31-9.06-26.44-3-54.12-18.88-51.11-31,3.13-12.61,21-27.2,53.15-31.49,24.12-3.23,55.94-10.68,88.51-10.68,26.45,0,48.65,6.58,70,7.88,40.28,2.45,67.17,19.75,67.17,34.29A12.05,12.05,0,0,1,1376.08,1341.34Z"/><path class="cls-28" d="M1164.07,1333.16c0,1.37-2.92,2.49-6.52,2.49s-6.52-1.12-6.52-2.49,2.92-2.5,6.52-2.5S1164.07,1331.78,1164.07,1333.16Z"/><path class="cls-28" d="M1203.72,1321.16c0,1.38-2.92,2.5-6.52,2.5s-6.52-1.12-6.52-2.5,2.92-2.5,6.52-2.5S1203.72,1319.78,1203.72,1321.16Z"/><path class="cls-28" d="M1179.24,1314.55c0,1.14-2.4,2.06-5.37,2.06s-5.38-.92-5.38-2.06,2.41-2.06,5.38-2.06S1179.24,1313.41,1179.24,1314.55Z"/><path class="cls-28" d="M1227.84,1309.45c0,1.26-2.68,2.29-6,2.29s-6-1-6-2.29,2.68-2.29,6-2.29S1227.84,1308.18,1227.84,1309.45Z"/><path class="cls-28" d="M1227.84,1333.16c0,2-4.22,3.61-9.44,3.61s-9.45-1.62-9.45-3.61,4.23-3.62,9.45-3.62S1227.84,1331.16,1227.84,1333.16Z"/><path class="cls-28" d="M1248.36,1320c0,1.38-2.92,2.5-6.52,2.5s-6.52-1.12-6.52-2.5,2.92-2.49,6.52-2.49S1248.36,1318.57,1248.36,1320Z"/><path class="cls-28" d="M1278.55,1321.2c0,.69-1.46,1.25-3.26,1.25s-3.26-.56-3.26-1.25,1.46-1.25,3.26-1.25S1278.55,1320.51,1278.55,1321.2Z"/><path class="cls-28" d="M1264.87,1310.49c0,.69-1.46,1.25-3.26,1.25s-3.26-.56-3.26-1.25,1.46-1.25,3.26-1.25S1264.87,1309.8,1264.87,1310.49Z"/><path class="cls-28" d="M1227.84,1350.7c0,.69-1.46,1.25-3.26,1.25s-3.26-.56-3.26-1.25,1.46-1.24,3.26-1.24S1227.84,1350,1227.84,1350.7Z"/><path class="cls-28" d="M1250.17,1356.38c0,.69-1.46,1.25-3.26,1.25s-3.26-.56-3.26-1.25,1.46-1.25,3.26-1.25S1250.17,1355.69,1250.17,1356.38Z"/><path class="cls-28" d="M1200.78,1346.6c0,1.55-3.3,2.82-7.37,2.82s-7.36-1.27-7.36-2.82,3.3-2.82,7.36-2.82S1200.78,1345,1200.78,1346.6Z"/><path class="cls-5" d="M1158.51,1347.3a14.69,14.69,0,0,0-9.52,1.24S1155.1,1351,1158.51,1347.3Z"/><path class="cls-5" d="M1195.69,1329.48a20,20,0,0,0-12.91,1.68S1191.06,1334.49,1195.69,1329.48Z"/><path class="cls-5" d="M1266.24,1320a20,20,0,0,0-12.09,4.82S1263,1326,1266.24,1320Z"/><path class="cls-5" d="M1297.59,1323.59a19.93,19.93,0,0,0-12.8-2.37S1291.65,1326.94,1297.59,1323.59Z"/><path class="cls-5" d="M1247.37,1333.82a16.86,16.86,0,0,0-9.06-6.22S1241.64,1334.37,1247.37,1333.82Z"/><path class="cls-5" d="M1236.28,1340.55a16.81,16.81,0,0,0-10.48,3.3S1233.18,1345.4,1236.28,1340.55Z"/><path class="cls-5" d="M1241.63,1361.71a16.82,16.82,0,0,0-10.69-2.54S1236.48,1364.28,1241.63,1361.71Z"/><path class="cls-5" d="M1249.91,1347.52a16.85,16.85,0,0,0-10.37,3.64S1247,1352.47,1249.91,1347.52Z"/><path class="cls-5" d="M1223.83,1321.36A16.83,16.83,0,0,0,1213,1323S1220,1325.67,1223.83,1321.36Z"/><path class="cls-5" d="M1209.58,1315.16a16.77,16.77,0,0,0-10.31-3.8S1204.16,1317.09,1209.58,1315.16Z"/><path class="cls-29" d="M1167.33,1350.42h0c-6.41,1.63-9.63,4.92-7.15,7.31h0c1.87,1.8,6,1.42,10.65.43l2.37,2.29a2.75,2.75,0,0,0,2.13.18l4.54-1.15c.85-.22,1.27-.65,1-1l-2.36-2.27c4.3-1.25,7-2.56,5-4.42h0C1181,1349.42,1173.74,1348.8,1167.33,1350.42Z"/><path class="cls-29" d="M1289.05,1308.56h0c5.22,1.32,7.85,4,5.82,6h0c-1.52,1.47-4.88,1.16-8.68.35l-1.93,1.87a2.2,2.2,0,0,1-1.73.15l-3.71-.94c-.69-.18-1-.53-.77-.79l1.92-1.85c-3.5-1-5.67-2.09-4.1-3.6h0C1277.9,1307.74,1283.82,1307.23,1289.05,1308.56Z"/><path class="cls-29" d="M1214.48,1340.25h0c5.22,1.32,7.84,4,5.82,6h0c-1.52,1.46-4.88,1.15-8.68.34l-1.93,1.87a2.22,2.22,0,0,1-1.74.15l-3.7-.94c-.69-.18-1-.53-.77-.79l1.92-1.85c-3.5-1-5.67-2.08-4.1-3.6h0C1203.32,1339.43,1209.25,1338.92,1214.48,1340.25Z"/><path class="cls-29" d="M1170.28,1320h0c-5.23,1.32-7.85,4-5.83,6h0c1.52,1.47,4.88,1.16,8.68.35l1.93,1.87a2.22,2.22,0,0,0,1.74.15l3.7-.94c.69-.18,1-.53.77-.79l-1.92-1.85c3.51-1,5.67-2.09,4.1-3.61h0C1181.43,1319.16,1175.5,1318.65,1170.28,1320Z"/><path class="cls-26" d="M1397.74,1337.37,1278,1334.06l-16.35-4.56v4.11l93.49,34.19c28.23-7.42,47.15-18.13,50.58-30.21v-4.11Z"/><path class="cls-30" d="M1405.69,1333.48c-3.43,12.08-22.37,22.79-50.59,30.22l-42.37-15.5-8.82-3.23h0l-42.29-15.47Z"/><path class="cls-28" d="M1309.54,1336.88c0,1.38-2.92,2.5-6.52,2.5s-6.53-1.12-6.53-2.5,2.92-2.5,6.53-2.5S1309.54,1335.5,1309.54,1336.88Z"/><path class="cls-28" d="M1316.43,1346c0,1-1.51,1.85-3.7,2.25l-8.82-3.23c1-.89,3.3-1.51,6-1.51C1313.51,1343.46,1316.43,1344.57,1316.43,1346Z"/><path class="cls-28" d="M1339.74,1346.52c0,.69-1.46,1.24-3.26,1.24s-3.26-.55-3.26-1.24,1.46-1.25,3.26-1.25S1339.74,1345.83,1339.74,1346.52Z"/><path class="cls-28" d="M1357.24,1339.38c0,.69-1.46,1.24-3.26,1.24s-3.27-.55-3.27-1.24,1.47-1.25,3.27-1.25S1357.24,1338.69,1357.24,1339.38Z"/><path class="cls-28" d="M1324.11,1337.5c0,.69-1.46,1.25-3.26,1.25s-3.26-.56-3.26-1.25,1.46-1.25,3.26-1.25S1324.11,1336.81,1324.11,1337.5Z"/><path class="cls-28" d="M1340.81,1335.3c0,1.14-2.41,2.06-5.37,2.06s-5.37-.92-5.37-2.06,2.4-2,5.37-2S1340.81,1334.17,1340.81,1335.3Z"/><path class="cls-28" d="M1335.44,1342c0,.77-1.63,1.39-3.63,1.39s-3.64-.62-3.64-1.39,1.63-1.39,3.64-1.39S1335.44,1341.21,1335.44,1342Z"/><ellipse class="cls-28" cx="1285.35" cy="1334.38" rx="2.39" ry="0.92"/><path class="cls-5" d="M1315.4,1337.67A13.79,13.79,0,0,0,1307,1341S1313.15,1341.83,1315.4,1337.67Z"/><path class="cls-5" d="M1369.43,1340.82a13.85,13.85,0,0,0-8.55-2.92S1365,1342.52,1369.43,1340.82Z"/><path class="cls-5" d="M1326.81,1345.93a13.8,13.8,0,0,0-8.64-2.63S1322.46,1347.77,1326.81,1345.93Z"/><path class="cls-5" d="M1355.09,1348.89a13.8,13.8,0,0,0-8.75,2.27S1352.33,1352.74,1355.09,1348.89Z"/><path class="cls-5" d="M1283.25,1331.58a12.29,12.29,0,0,0-7.9,1.27S1280.5,1334.74,1283.25,1331.58Z"/><path class="cls-26" d="M1111.37,798.75c-19.37,2.79-36.94,5.07-49.27,13.19-11.35,7.48-18.3,17.54-18.3,28.6,0,12.3,7.56,25.45,22.27,31,12.36,4.66,31.83,14.23,45.3,10.78,16.9-4.31,31.92-3.72,43.7-9.91l-5.47-4-38.16-27.88,61.47,3.4,5.76.31a25.42,25.42,0,0,0,.27-3.71c0-11.84-8-22.53-20.75-30.13C1146,803.19,1129.5,796.14,1111.37,798.75Z"/><path class="cls-27" d="M1172.91,843.94l-61.47-3.4,38.16,27.88a79.24,79.24,0,0,1-12.35,4.34c-7.86,2.08-16.94.66-25.81,3.24-14.69,4.28-28.24-5.54-39.11-8-11.71-2.67-24-16.71-22.64-27.44,1.39-11.15,9.32-24.07,23.54-27.86,10.68-2.85,24.78-9.45,39.21-9.45,11.71,0,21.54,5.82,31,7,17.84,2.17,29.75,17.48,29.75,30.34A20.35,20.35,0,0,1,1172.91,843.94Z"/><path class="cls-28" d="M1079,836.69c0,1.22-1.3,2.21-2.89,2.21s-2.89-1-2.89-2.21,1.29-2.21,2.89-2.21S1079,835.47,1079,836.69Z"/><path class="cls-28" d="M1096.57,826.08c0,1.22-1.29,2.21-2.89,2.21s-2.89-1-2.89-2.21,1.3-2.21,2.89-2.21S1096.57,824.86,1096.57,826.08Z"/><ellipse class="cls-28" cx="1083.35" cy="820.23" rx="2.38" ry="1.82"/><path class="cls-28" d="M1107.25,815.72c0,1.12-1.18,2-2.65,2s-2.65-.9-2.65-2,1.19-2,2.65-2S1107.25,814.6,1107.25,815.72Z"/><path class="cls-28" d="M1107.25,836.69c0,1.77-1.87,3.2-4.18,3.2s-4.18-1.43-4.18-3.2,1.87-3.2,4.18-3.2S1107.25,834.93,1107.25,836.69Z"/><path class="cls-28" d="M1116.34,825c0,1.22-1.29,2.21-2.89,2.21s-2.88-1-2.88-2.21,1.29-2.21,2.88-2.21S1116.34,823.79,1116.34,825Z"/><path class="cls-28" d="M1129.71,826.11a1.49,1.49,0,1,1-1.44-1.1A1.31,1.31,0,0,1,1129.71,826.11Z"/><path class="cls-28" d="M1123.65,816.64a1.5,1.5,0,1,1-1.44-1.1A1.3,1.3,0,0,1,1123.65,816.64Z"/><path class="cls-28" d="M1107.25,852.22a1.49,1.49,0,1,1-1.44-1.11A1.3,1.3,0,0,1,1107.25,852.22Z"/><path class="cls-28" d="M1117.14,857.24a1.49,1.49,0,1,1-1.44-1.1A1.31,1.31,0,0,1,1117.14,857.24Z"/><path class="cls-28" d="M1095.27,848.59c0,1.37-1.46,2.49-3.27,2.49s-3.26-1.12-3.26-2.49,1.46-2.5,3.26-2.5S1095.27,847.21,1095.27,848.59Z"/><path class="cls-5" d="M1076.55,849.21a3.65,3.65,0,0,0-4.22,1.09A2.59,2.59,0,0,0,1076.55,849.21Z"/><path class="cls-5" d="M1093,833.44s-2.9-1.46-5.72,1.49C1087.29,834.93,1091,837.87,1093,833.44Z"/><path class="cls-5" d="M1124.26,825s-3,0-5.35,4.27C1118.91,829.31,1122.83,830.35,1124.26,825Z"/><path class="cls-5" d="M1138.14,828.23s-2.53-3.17-5.66-2.1C1132.48,826.13,1135.51,831.19,1138.14,828.23Z"/><path class="cls-5" d="M1115.9,837.28s-1.41-4.18-4-5.5C1111.89,831.78,1113.37,837.76,1115.9,837.28Z"/><path class="cls-5" d="M1111,843.24s-2.52-.36-4.64,2.92C1106.35,846.16,1109.62,847.53,1111,843.24Z"/><path class="cls-5" d="M1113.36,862s-2.07-2.89-4.74-2.25C1108.62,859.71,1111.08,864.23,1113.36,862Z"/><path class="cls-5" d="M1117,849.4s-2.53-.2-4.59,3.22C1112.44,852.62,1115.72,853.78,1117,849.4Z"/><path class="cls-5" d="M1105.48,826.25s-2.46-1.13-4.82,1.46A3,3,0,0,0,1105.48,826.25Z"/><path class="cls-5" d="M1099.17,820.77s-1.89-3.37-4.57-3.36C1094.6,817.41,1096.77,822.48,1099.17,820.77Z"/><path class="cls-29" d="M1080.45,852h0c-2.84,1.44-4.26,4.35-3.16,6.47h0c.82,1.59,2.65,1.25,4.71.38l1,2a.69.69,0,0,0,.94.16l2-1a.69.69,0,0,0,.42-.85l-1-2c1.91-1.11,3.08-2.27,2.23-3.91h0C1086.51,851.09,1083.29,850.53,1080.45,852Z"/><path class="cls-29" d="M1134.36,814.93h0c2.32,1.17,3.48,3.54,2.58,5.27h0c-.67,1.3-2.16,1-3.84.31l-.86,1.65a.56.56,0,0,1-.77.13l-1.64-.83a.57.57,0,0,1-.34-.7l.85-1.63c-1.55-.91-2.51-1.85-1.81-3.19h0C1129.42,814.21,1132.05,813.75,1134.36,814.93Z"/><path class="cls-29" d="M1101.33,843h0c2.32,1.17,3.48,3.54,2.58,5.27h0c-.67,1.3-2.16,1-3.84.31l-.86,1.65a.58.58,0,0,1-.77.13l-1.64-.83a.58.58,0,0,1-.34-.7l.85-1.64c-1.55-.9-2.51-1.84-1.81-3.19h0C1096.39,842.25,1099,841.79,1101.33,843Z"/><path class="cls-29" d="M1081.76,825h0c-2.32,1.17-3.48,3.55-2.58,5.27h0c.67,1.3,2.16,1,3.84.31l.86,1.65a.56.56,0,0,0,.77.13l1.64-.83a.56.56,0,0,0,.34-.69l-.85-1.64c1.55-.9,2.51-1.85,1.81-3.19h0C1086.7,824.31,1084.07,823.86,1081.76,825Z"/><path class="cls-26" d="M1182.51,840.42l-53.06-2.93-7.24-4v3.63l41.41,30.25c12.5-6.56,20.88-16,22.4-26.72V837Z"/><path class="cls-30" d="M1186,837c-1.51,10.69-9.9,20.17-22.4,26.73L1144.85,850l-3.91-2.85h0l-18.73-13.69Z"/><path class="cls-28" d="M1143.44,840c0,1.22-1.3,2.21-2.89,2.21s-2.89-1-2.89-2.21,1.29-2.21,2.89-2.21S1143.44,838.77,1143.44,840Z"/><path class="cls-28" d="M1146.49,848a2.24,2.24,0,0,1-1.64,2l-3.91-2.85a3,3,0,0,1,2.66-1.34C1145.2,845.81,1146.49,846.79,1146.49,848Z"/><ellipse class="cls-28" cx="1155.37" cy="848.51" rx="1.44" ry="1.1"/><path class="cls-28" d="M1164.56,842.2a1.49,1.49,0,1,1-1.44-1.11A1.3,1.3,0,0,1,1164.56,842.2Z"/><path class="cls-28" d="M1149.89,840.54a1.49,1.49,0,1,1-1.44-1.11A1.3,1.3,0,0,1,1149.89,840.54Z"/><path class="cls-28" d="M1157.29,838.59a2.47,2.47,0,1,1-2.38-1.82A2.16,2.16,0,0,1,1157.29,838.59Z"/><path class="cls-28" d="M1154.91,844.5a1.67,1.67,0,1,1-1.61-1.23A1.46,1.46,0,0,1,1154.91,844.5Z"/><path class="cls-28" d="M1133.79,837.78a1.11,1.11,0,1,1-1.06-.81A1,1,0,0,1,1133.79,837.78Z"/><path class="cls-5" d="M1146,840.69s-2.07,0-3.71,3C1142.32,843.65,1145,844.37,1146,840.69Z"/><path class="cls-5" d="M1170,843.47s-1.59-2.69-3.79-2.58C1166.18,840.89,1168,845,1170,843.47Z"/><path class="cls-5" d="M1151.09,848s-1.63-2.59-3.83-2.33C1147.26,845.67,1149.16,849.63,1151.09,848Z"/><path class="cls-5" d="M1163.61,850.61s-2.06-.51-3.87,2C1159.74,852.62,1162.39,854,1163.61,850.61Z"/><path class="cls-5" d="M1131.8,835.3a3.12,3.12,0,0,0-3.5,1.12A2.19,2.19,0,0,0,1131.8,835.3Z"/><path class="cls-26" d="M1281.25,909.27c-19.37,2.79-37,5.08-49.27,13.2-11.35,7.47-18.3,17.53-18.3,28.6,0,12.29,7.55,25.45,22.26,31,12.37,4.67,31.83,14.23,45.31,10.79,16.9-4.32,31.91-3.73,43.7-9.92l-5.47-4-38.16-27.87,61.47,3.39,5.76.32a27.11,27.11,0,0,0,.26-3.71c0-11.84-8-22.53-20.75-30.14C1315.92,913.71,1299.37,906.66,1281.25,909.27Z"/><path class="cls-27" d="M1342.79,954.46l-61.47-3.39,38.16,27.87a79.37,79.37,0,0,1-12.36,4.35c-7.85,2.08-16.94.65-25.8,3.23-14.69,4.28-28.24-5.53-39.12-8-11.71-2.67-24-16.7-22.63-27.43,1.38-11.15,9.32-24.07,23.54-27.87,10.68-2.85,24.77-9.44,39.2-9.44,11.72,0,21.55,5.82,31,7,17.85,2.17,29.76,17.48,29.76,30.34A21.34,21.34,0,0,1,1342.79,954.46Z"/><path class="cls-28" d="M1248.88,947.22c0,1.22-1.29,2.21-2.89,2.21s-2.88-1-2.88-2.21S1244.4,945,1246,945,1248.88,946,1248.88,947.22Z"/><path class="cls-28" d="M1266.45,936.6c0,1.22-1.3,2.21-2.89,2.21s-2.89-1-2.89-2.21,1.29-2.21,2.89-2.21S1266.45,935.38,1266.45,936.6Z"/><path class="cls-28" d="M1255.61,930.75a2.47,2.47,0,1,1-2.39-1.82A2.16,2.16,0,0,1,1255.61,930.75Z"/><path class="cls-28" d="M1277.13,926.24c0,1.12-1.19,2-2.65,2s-2.65-.91-2.65-2,1.18-2,2.65-2S1277.13,925.12,1277.13,926.24Z"/><path class="cls-28" d="M1277.13,947.22c0,1.76-1.87,3.19-4.18,3.19s-4.19-1.43-4.19-3.19,1.88-3.2,4.19-3.2S1277.13,945.45,1277.13,947.22Z"/><path class="cls-28" d="M1286.22,935.53c0,1.22-1.29,2.21-2.89,2.21s-2.89-1-2.89-2.21,1.3-2.2,2.89-2.2S1286.22,934.31,1286.22,935.53Z"/><path class="cls-28" d="M1299.59,936.64a1.5,1.5,0,1,1-1.44-1.11A1.31,1.31,0,0,1,1299.59,936.64Z"/><path class="cls-28" d="M1293.53,927.16a1.5,1.5,0,1,1-1.44-1.1A1.31,1.31,0,0,1,1293.53,927.16Z"/><path class="cls-28" d="M1277.13,962.74a1.5,1.5,0,1,1-1.44-1.1A1.31,1.31,0,0,1,1277.13,962.74Z"/><path class="cls-28" d="M1287,967.77a1.5,1.5,0,1,1-1.44-1.11A1.31,1.31,0,0,1,1287,967.77Z"/><path class="cls-28" d="M1265.14,959.11c0,1.38-1.46,2.49-3.26,2.49s-3.26-1.11-3.26-2.49,1.46-2.49,3.26-2.49S1265.14,957.73,1265.14,959.11Z"/><path class="cls-5" d="M1246.42,959.73a3.65,3.65,0,0,0-4.22,1.1A2.59,2.59,0,0,0,1246.42,959.73Z"/><path class="cls-5" d="M1262.89,944s-2.9-1.47-5.72,1.48C1257.17,945.45,1260.84,948.4,1262.89,944Z"/><path class="cls-5" d="M1294.14,935.57s-3,0-5.36,4.26C1288.78,939.83,1292.7,940.87,1294.14,935.57Z"/><path class="cls-5" d="M1308,938.75s-2.53-3.17-5.67-2.09C1302.35,936.66,1305.39,941.71,1308,938.75Z"/><path class="cls-5" d="M1285.78,947.81s-1.41-4.19-4-5.51C1281.77,942.3,1283.24,948.29,1285.78,947.81Z"/><path class="cls-5" d="M1280.87,953.76s-2.52-.36-4.64,2.92C1276.23,956.68,1279.49,958.05,1280.87,953.76Z"/><path class="cls-5" d="M1283.24,972.48s-2.07-2.89-4.74-2.25C1278.5,970.23,1281,974.76,1283.24,972.48Z"/><path class="cls-5" d="M1286.91,959.93s-2.53-.2-4.6,3.22C1282.31,963.15,1285.6,964.3,1286.91,959.93Z"/><path class="cls-5" d="M1275.35,936.78s-2.46-1.14-4.81,1.45A3,3,0,0,0,1275.35,936.78Z"/><path class="cls-5" d="M1269,931.29s-1.88-3.36-4.57-3.36C1264.47,927.93,1266.64,933,1269,931.29Z"/><path class="cls-29" d="M1250.33,962.49h0c-2.84,1.44-4.27,4.35-3.17,6.47h0c.83,1.6,2.66,1.26,4.72.38l1,2a.69.69,0,0,0,.94.17l2-1a.68.68,0,0,0,.42-.86l-1-2c1.9-1.11,3.08-2.26,2.23-3.91h0C1256.39,961.61,1253.17,961.06,1250.33,962.49Z"/><path class="cls-29" d="M1304.24,925.45h0c2.31,1.17,3.48,3.55,2.58,5.27h0c-.67,1.3-2.16,1-3.85.31l-.85,1.65a.56.56,0,0,1-.77.13l-1.64-.83a.55.55,0,0,1-.34-.69l.85-1.64c-1.55-.9-2.51-1.85-1.82-3.19h0C1299.3,924.73,1301.93,924.28,1304.24,925.45Z"/><path class="cls-29" d="M1271.21,953.49h0c2.32,1.17,3.48,3.55,2.58,5.27h0c-.67,1.3-2.16,1-3.84.31l-.86,1.65a.56.56,0,0,1-.77.13l-1.64-.83a.54.54,0,0,1-.34-.69l.85-1.64c-1.55-.91-2.51-1.85-1.82-3.19h0C1266.27,952.77,1268.9,952.32,1271.21,953.49Z"/><path class="cls-29" d="M1251.63,935.56h0c-2.31,1.17-3.47,3.54-2.58,5.27h0c.68,1.3,2.17,1,3.85.31l.85,1.65a.58.58,0,0,0,.77.13l1.64-.83a.56.56,0,0,0,.34-.7l-.85-1.64c1.55-.9,2.51-1.84,1.82-3.19h0C1256.57,934.84,1254,934.38,1251.63,935.56Z"/><path class="cls-26" d="M1352.38,951,1299.33,948l-7.24-4v3.63l41.4,30.25c12.51-6.57,20.89-16,22.41-26.73v-3.63Z"/><path class="cls-30" d="M1355.9,947.51c-1.52,10.68-9.9,20.16-22.41,26.73l-18.76-13.71-3.91-2.86h0L1292.09,944Z"/><path class="cls-28" d="M1313.31,950.51c0,1.22-1.29,2.21-2.88,2.21s-2.89-1-2.89-2.21,1.29-2.21,2.89-2.21S1313.31,949.29,1313.31,950.51Z"/><path class="cls-28" d="M1316.37,958.53a2.25,2.25,0,0,1-1.64,2l-3.91-2.86a3,3,0,0,1,2.66-1.34C1315.07,956.33,1316.37,957.32,1316.37,958.53Z"/><path class="cls-28" d="M1326.69,959a1.5,1.5,0,0,1-2.89,0,1.5,1.5,0,0,1,2.89,0Z"/><path class="cls-28" d="M1334.44,952.72a1.5,1.5,0,1,1-1.44-1.1A1.31,1.31,0,0,1,1334.44,952.72Z"/><path class="cls-28" d="M1319.77,951.06a1.5,1.5,0,1,1-1.44-1.1A1.31,1.31,0,0,1,1319.77,951.06Z"/><path class="cls-28" d="M1327.17,949.12a2.47,2.47,0,1,1-2.38-1.82A2.16,2.16,0,0,1,1327.17,949.12Z"/><path class="cls-28" d="M1324.79,955a1.67,1.67,0,1,1-1.61-1.23A1.46,1.46,0,0,1,1324.79,955Z"/><path class="cls-28" d="M1303.66,948.3a1.1,1.1,0,1,1-1.06-.81A1,1,0,0,1,1303.66,948.3Z"/><path class="cls-5" d="M1315.91,951.21s-2.08,0-3.71,3C1312.2,954.17,1314.92,954.89,1315.91,951.21Z"/><path class="cls-5" d="M1339.84,954s-1.58-2.69-3.78-2.58C1336.06,951.42,1337.89,955.5,1339.84,954Z"/><path class="cls-5" d="M1321,958.52s-1.63-2.58-3.83-2.33C1317.14,956.19,1319,960.15,1321,958.52Z"/><path class="cls-5" d="M1333.49,961.14s-2.06-.51-3.87,2C1329.62,963.14,1332.27,964.54,1333.49,961.14Z"/><path class="cls-5" d="M1301.67,945.82a3.12,3.12,0,0,0-3.5,1.12A2.19,2.19,0,0,0,1301.67,945.82Z"/><path class="cls-26" d="M1111.37,1025.65c-19.37,2.79-36.94,5.08-49.27,13.2-11.35,7.47-18.3,17.53-18.3,28.6,0,12.29,7.56,25.45,22.27,31,12.36,4.67,31.83,14.23,45.3,10.79,16.9-4.32,31.92-3.73,43.7-9.92l-5.47-4-38.16-27.87,61.47,3.39,5.76.32a25.62,25.62,0,0,0,.27-3.71c0-11.84-8-22.53-20.75-30.14C1146,1030.09,1129.5,1023.05,1111.37,1025.65Z"/><path class="cls-27" d="M1172.91,1070.84l-61.47-3.39,38.16,27.87a79.25,79.25,0,0,1-12.35,4.35c-7.86,2.08-16.94.65-25.81,3.23-14.69,4.28-28.24-5.53-39.11-8-11.71-2.67-24-16.7-22.64-27.43,1.39-11.15,9.32-24.07,23.54-27.87,10.68-2.85,24.78-9.44,39.21-9.44,11.71,0,21.54,5.82,31,7,17.84,2.17,29.75,17.48,29.75,30.34A20.23,20.23,0,0,1,1172.91,1070.84Z"/><path class="cls-28" d="M1079,1063.6c0,1.22-1.3,2.2-2.89,2.2s-2.89-1-2.89-2.2,1.29-2.21,2.89-2.21S1079,1062.38,1079,1063.6Z"/><path class="cls-28" d="M1096.57,1053c0,1.22-1.29,2.21-2.89,2.21s-2.89-1-2.89-2.21,1.3-2.21,2.89-2.21S1096.57,1051.76,1096.57,1053Z"/><ellipse class="cls-28" cx="1083.35" cy="1047.13" rx="2.38" ry="1.82"/><path class="cls-28" d="M1107.25,1042.62c0,1.12-1.18,2-2.65,2s-2.65-.91-2.65-2,1.19-2,2.65-2S1107.25,1041.5,1107.25,1042.62Z"/><path class="cls-28" d="M1107.25,1063.6c0,1.76-1.87,3.19-4.18,3.19s-4.18-1.43-4.18-3.19,1.87-3.2,4.18-3.2S1107.25,1061.83,1107.25,1063.6Z"/><path class="cls-28" d="M1116.34,1051.91c0,1.22-1.29,2.21-2.89,2.21s-2.88-1-2.88-2.21,1.29-2.2,2.88-2.2S1116.34,1050.69,1116.34,1051.91Z"/><path class="cls-28" d="M1129.71,1053a1.49,1.49,0,1,1-1.44-1.11A1.3,1.3,0,0,1,1129.71,1053Z"/><ellipse class="cls-28" cx="1122.21" cy="1043.54" rx="1.44" ry="1.1"/><path class="cls-28" d="M1107.25,1079.12a1.49,1.49,0,1,1-1.44-1.1A1.31,1.31,0,0,1,1107.25,1079.12Z"/><path class="cls-28" d="M1117.14,1084.15a1.49,1.49,0,1,1-1.44-1.11A1.3,1.3,0,0,1,1117.14,1084.15Z"/><path class="cls-28" d="M1095.27,1075.49c0,1.38-1.46,2.49-3.27,2.49s-3.26-1.11-3.26-2.49,1.46-2.49,3.26-2.49S1095.27,1074.11,1095.27,1075.49Z"/><path class="cls-5" d="M1076.55,1076.11a3.65,3.65,0,0,0-4.22,1.1A2.59,2.59,0,0,0,1076.55,1076.11Z"/><path class="cls-5" d="M1093,1060.35s-2.9-1.47-5.72,1.48C1087.29,1061.83,1091,1064.78,1093,1060.35Z"/><path class="cls-5" d="M1124.26,1052s-3,0-5.35,4.26C1118.91,1056.21,1122.83,1057.25,1124.26,1052Z"/><path class="cls-5" d="M1138.14,1055.13s-2.53-3.17-5.66-2.09C1132.48,1053,1135.51,1058.09,1138.14,1055.13Z"/><path class="cls-5" d="M1115.9,1064.19s-1.41-4.19-4-5.51C1111.89,1058.68,1113.37,1064.67,1115.9,1064.19Z"/><path class="cls-5" d="M1111,1070.14s-2.52-.36-4.64,2.92C1106.35,1073.06,1109.62,1074.43,1111,1070.14Z"/><path class="cls-5" d="M1113.36,1088.86s-2.07-2.89-4.74-2.25C1108.62,1086.61,1111.08,1091.14,1113.36,1088.86Z"/><path class="cls-5" d="M1117,1076.31s-2.53-.2-4.59,3.22C1112.44,1079.53,1115.72,1080.68,1117,1076.31Z"/><path class="cls-5" d="M1105.48,1053.16s-2.46-1.14-4.82,1.45A3,3,0,0,0,1105.48,1053.16Z"/><path class="cls-5" d="M1099.17,1047.67s-1.89-3.36-4.57-3.36C1094.6,1044.31,1096.77,1049.39,1099.17,1047.67Z"/><path class="cls-29" d="M1080.45,1078.87h0c-2.84,1.44-4.26,4.35-3.16,6.47h0c.82,1.6,2.65,1.26,4.71.38l1,2a.7.7,0,0,0,.94.17l2-1a.7.7,0,0,0,.42-.86l-1-2c1.91-1.11,3.08-2.26,2.23-3.91h0C1086.51,1078,1083.29,1077.44,1080.45,1078.87Z"/><path class="cls-29" d="M1134.36,1041.83h0c2.32,1.17,3.48,3.55,2.58,5.27h0c-.67,1.3-2.16,1-3.84.31l-.86,1.65a.56.56,0,0,1-.77.13l-1.64-.83a.55.55,0,0,1-.34-.69l.85-1.64c-1.55-.9-2.51-1.85-1.81-3.19h0C1129.42,1041.11,1132.05,1040.66,1134.36,1041.83Z"/><path class="cls-29" d="M1101.33,1069.87h0c2.32,1.17,3.48,3.55,2.58,5.27h0c-.67,1.3-2.16,1-3.84.31l-.86,1.65a.56.56,0,0,1-.77.13l-1.64-.83a.56.56,0,0,1-.34-.69l.85-1.64c-1.55-.91-2.51-1.85-1.81-3.19h0C1096.39,1069.15,1099,1068.7,1101.33,1069.87Z"/><path class="cls-29" d="M1081.76,1051.94h0c-2.32,1.17-3.48,3.54-2.58,5.27h0c.67,1.3,2.16,1,3.84.31l.86,1.65a.58.58,0,0,0,.77.13l1.64-.83a.58.58,0,0,0,.34-.7l-.85-1.64c1.55-.9,2.51-1.84,1.81-3.19h0C1086.7,1051.22,1084.07,1050.76,1081.76,1051.94Z"/><path class="cls-26" d="M1182.51,1067.33l-53.06-2.93-7.24-4V1064l41.41,30.25c12.5-6.57,20.88-16,22.4-26.73v-3.63Z"/><path class="cls-30" d="M1186,1063.89c-1.51,10.68-9.9,20.16-22.4,26.73l-18.77-13.71-3.91-2.86h0l-18.73-13.69Z"/><path class="cls-28" d="M1143.44,1066.89c0,1.22-1.3,2.21-2.89,2.21s-2.89-1-2.89-2.21,1.29-2.21,2.89-2.21S1143.44,1065.67,1143.44,1066.89Z"/><path class="cls-28" d="M1146.49,1074.91a2.25,2.25,0,0,1-1.64,2l-3.91-2.86a3,3,0,0,1,2.66-1.34C1145.2,1072.71,1146.49,1073.7,1146.49,1074.91Z"/><path class="cls-28" d="M1156.82,1075.42a1.5,1.5,0,1,1-1.45-1.11A1.31,1.31,0,0,1,1156.82,1075.42Z"/><path class="cls-28" d="M1164.56,1069.1a1.49,1.49,0,1,1-1.44-1.1A1.3,1.3,0,0,1,1164.56,1069.1Z"/><path class="cls-28" d="M1149.89,1067.44a1.49,1.49,0,1,1-1.44-1.1A1.31,1.31,0,0,1,1149.89,1067.44Z"/><path class="cls-28" d="M1157.29,1065.5a2.47,2.47,0,1,1-2.38-1.82A2.16,2.16,0,0,1,1157.29,1065.5Z"/><path class="cls-28" d="M1154.91,1071.4a1.67,1.67,0,1,1-1.61-1.23A1.46,1.46,0,0,1,1154.91,1071.4Z"/><path class="cls-28" d="M1133.79,1064.68a1.11,1.11,0,1,1-1.06-.81A1,1,0,0,1,1133.79,1064.68Z"/><path class="cls-5" d="M1146,1067.59s-2.07,0-3.71,3C1142.32,1070.55,1145,1071.27,1146,1067.59Z"/><path class="cls-5" d="M1170,1070.38s-1.59-2.69-3.79-2.58C1166.18,1067.8,1168,1071.88,1170,1070.38Z"/><path class="cls-5" d="M1151.09,1074.9s-1.63-2.58-3.83-2.33C1147.26,1072.57,1149.16,1076.53,1151.09,1074.9Z"/><path class="cls-5" d="M1163.61,1077.52s-2.06-.51-3.87,2C1159.74,1079.52,1162.39,1080.92,1163.61,1077.52Z"/><path class="cls-5" d="M1131.8,1062.2a3.12,3.12,0,0,0-3.5,1.12A2.19,2.19,0,0,0,1131.8,1062.2Z"/><path class="cls-26" d="M1396.23,1333.22s-8.42,4-10.77,9.09-11.81,3.31-16,6.53-8.56,12.86-20.11,12.74v2.12l4.66,1.8s31.4-8.75,35.7-12.16,14.56-12.26,14.56-12.26l1.45-7.6Z"/><path class="cls-7" d="M1214.21,1545h-91.43a3.75,3.75,0,0,1-3.74-3.73h0a3.74,3.74,0,0,1,3.74-3.73h91.43a3.74,3.74,0,0,1,3.74,3.73h0A3.75,3.75,0,0,1,1214.21,1545Z"/><path class="cls-7" d="M1214.21,1527.54h-91.43a3.74,3.74,0,0,1-3.74-3.73h0a3.75,3.75,0,0,1,3.74-3.73h91.43a3.75,3.75,0,0,1,3.74,3.73h0A3.74,3.74,0,0,1,1214.21,1527.54Z"/><path class="cls-29" d="M1163.65,935.72H1057.49a4.08,4.08,0,0,1-4.08-4.08h0a4.08,4.08,0,0,1,4.08-4.07h106.16a4.08,4.08,0,0,1,4.07,4.07h0A4.08,4.08,0,0,1,1163.65,935.72Z"/><path class="cls-29" d="M1163.65,952.38H1057.49a4.08,4.08,0,0,1-4.08-4.08h0a4.08,4.08,0,0,1,4.08-4.07h106.16a4.08,4.08,0,0,1,4.07,4.07h0A4.08,4.08,0,0,1,1163.65,952.38Z"/><path class="cls-29" d="M1163.65,969H1057.49a4.08,4.08,0,0,1-4.08-4.08h0a4.08,4.08,0,0,1,4.08-4.07h106.16a4.08,4.08,0,0,1,4.07,4.07h0A4.08,4.08,0,0,1,1163.65,969Z"/><path class="cls-29" d="M1345.17,816.81H1239a4.09,4.09,0,0,1-4.08-4.08h0a4.09,4.09,0,0,1,4.08-4.08h106.16a4.09,4.09,0,0,1,4.07,4.08h0A4.09,4.09,0,0,1,1345.17,816.81Z"/><path class="cls-29" d="M1345.17,833.47H1239a4.09,4.09,0,0,1-4.08-4.08h0a4.09,4.09,0,0,1,4.08-4.08h106.16a4.09,4.09,0,0,1,4.07,4.08h0A4.09,4.09,0,0,1,1345.17,833.47Z"/><path class="cls-29" d="M1345.17,850.13H1239a4.09,4.09,0,0,1-4.08-4.08h0A4.09,4.09,0,0,1,1239,842h106.16a4.09,4.09,0,0,1,4.07,4.08h0A4.09,4.09,0,0,1,1345.17,850.13Z"/><path class="cls-29" d="M1345.17,1053.22H1239a4.08,4.08,0,0,1-4.08-4.07h0a4.08,4.08,0,0,1,4.08-4.08h106.16a4.08,4.08,0,0,1,4.07,4.08h0A4.08,4.08,0,0,1,1345.17,1053.22Z"/><path class="cls-29" d="M1345.17,1069.88H1239a4.08,4.08,0,0,1-4.08-4.08h0a4.08,4.08,0,0,1,4.08-4.07h106.16a4.08,4.08,0,0,1,4.07,4.07h0A4.08,4.08,0,0,1,1345.17,1069.88Z"/><path class="cls-29" d="M1345.17,1086.54H1239a4.08,4.08,0,0,1-4.08-4.08h0a4.08,4.08,0,0,1,4.08-4.07h106.16a4.08,4.08,0,0,1,4.07,4.07h0A4.08,4.08,0,0,1,1345.17,1086.54Z"/><path class="cls-17" d="M1635.51,1065.8H1533.86a30.49,30.49,0,0,1-30.41-30.4h0a30.49,30.49,0,0,1,30.41-30.41h101.65a30.49,30.49,0,0,1,30.41,30.41h0A30.49,30.49,0,0,1,1635.51,1065.8Z"/><path class="cls-31" d="M1565.25,1026.65s19.3,27,19.24,26,19.63-38.37,19.63-38.37l-22.73,22Z"/><polygon class="cls-15" points="1263.77 1398.49 1198.52 1414.28 1178.2 1405.57 1241.47 1390.97 1263.77 1398.49"/><rect class="cls-32" x="148.55" y="1805.56" width="2284.91" height="7.03" rx="3.06"/></g></g></g></svg>