<svg width="591" height="576" viewBox="0 0 591 576" fill="none" xmlns="http://www.w3.org/2000/svg">
<g clip-path="url(#clip0)">
<path style="mix-blend-mode:multiply" opacity="0.25" d="M394.184 513.198C520.25 509.083 572.819 375.856 560.683 225.17C553.292 133.526 513.383 48.7503 440.724 0H136.5C104.976 20.6047 81.0929 45.7482 62.4216 68.7537C-12.6603 161.25 -22.1718 317.593 45.6875 397.67C113.547 477.748 248.9 517.939 394.184 513.198Z" fill="url(#paint0_linear)"/>
<path opacity="0.25" d="M273.323 541.795C379.974 588.511 527.087 552.983 581.905 463.855C585.132 458.61 588.163 453.178 591 447.559V93.3604C590.736 92.5309 590.474 91.7015 590.207 90.8721C576.098 47.2596 549.342 17.6049 514.579 0H307.145C297.141 3.3024 287.13 6.98035 277.112 11.0339C155.068 60.4892 66.9275 174.947 99.9098 328.09C128.74 461.977 210.659 514.347 273.323 541.795Z" fill="url(#paint1_linear)"/>
<path style="mix-blend-mode:multiply" opacity="0.25" d="M588.458 342.605C589.315 340.147 590.162 337.666 591 335.161V152.454C576.996 128.994 554.562 108.519 520.626 93.1855C405.574 41.1958 127.819 77.7395 47.255 239.902C-18.0309 371.331 76.8175 524.411 193.296 576H363.625C472.128 533.752 559.462 425.627 588.458 342.605Z" fill="url(#paint2_linear)"/>
<g clip-path="url(#clip1)">
<path d="M360.487 413.756L348.21 424.431L357.967 408.968C350.28 395.801 337.709 384.422 337.709 384.422C337.709 384.422 311.627 408.025 311.627 426.579C311.627 445.133 323.304 451.611 337.709 451.611C352.113 451.611 363.79 445.133 363.79 426.579C363.79 422.449 362.496 418.07 360.487 413.756Z" fill="#F2F2F2"/>
<path d="M345.053 425.009V425.924C344.996 436.554 343.098 444.849 339.374 450.689C339.321 450.775 339.263 450.857 339.211 450.943L338.794 450.703L338.396 450.467C342.527 444.16 343.989 435.246 344.042 425.974C344.047 425.675 344.052 425.372 344.047 425.068C344.032 421.143 343.778 417.172 343.371 413.315C343.342 413.016 343.309 412.713 343.275 412.409C342.709 407.321 341.895 402.458 341.061 398.234C341.003 397.935 340.941 397.636 340.879 397.342C339.436 390.198 337.964 385.023 337.629 383.877C337.591 383.737 337.567 383.66 337.562 383.642L338.017 383.52L338.022 383.515L338.482 383.393C338.487 383.411 338.568 383.669 338.702 384.149C339.215 385.942 340.548 390.809 341.856 397.229C341.914 397.519 341.976 397.817 342.034 398.116C342.714 401.544 343.38 405.374 343.908 409.394C344.042 410.404 344.162 411.4 344.267 412.382C344.305 412.686 344.339 412.989 344.368 413.288C344.809 417.458 345.037 421.365 345.053 425.009Z" fill="white"/>
<path d="M341.856 397.229C341.535 397.27 341.209 397.31 340.879 397.342C339.981 397.429 339.078 397.473 338.175 397.473C334.328 397.478 330.528 396.668 327.056 395.101C326.854 395.341 326.653 395.581 326.447 395.825C330.099 397.51 334.111 398.383 338.175 398.379C339.139 398.379 340.102 398.33 341.061 398.234C341.387 398.202 341.713 398.162 342.034 398.116C344.685 397.757 347.262 397.02 349.679 395.93C349.473 395.681 349.271 395.436 349.075 395.196C346.788 396.206 344.355 396.891 341.856 397.229V397.229Z" fill="white"/>
<path d="M344.267 412.383C343.937 412.401 343.606 412.41 343.275 412.41C343.174 412.414 343.069 412.414 342.968 412.414C338.799 412.414 334.691 411.462 330.996 409.639C327.3 407.815 324.126 405.175 321.745 401.942C321.553 402.209 321.361 402.477 321.174 402.748C323.657 406.019 326.929 408.684 330.719 410.522C334.509 412.361 338.708 413.32 342.968 413.32C343.103 413.32 343.237 413.32 343.371 413.315C343.706 413.311 344.037 413.302 344.368 413.288C349.485 413.041 354.419 411.406 358.579 408.58C358.426 408.312 358.273 408.045 358.114 407.778C354.071 410.553 349.259 412.153 344.267 412.383V412.383Z" fill="white"/>
<path d="M345.053 425.01C344.718 425.037 344.382 425.055 344.047 425.068C343.687 425.082 343.328 425.091 342.968 425.091C337.366 425.085 331.916 423.365 327.435 420.188C322.954 417.012 319.683 412.55 318.112 407.47C317.896 407.837 317.68 408.199 317.474 408.566C319.245 413.634 322.661 418.045 327.238 421.175C331.814 424.304 337.319 425.991 342.968 425.997C343.328 425.997 343.687 425.992 344.042 425.974C344.382 425.965 344.718 425.947 345.053 425.924C351.83 425.423 358.152 422.509 362.74 417.77C362.639 417.435 362.524 417.105 362.409 416.77C357.978 421.544 351.753 424.499 345.053 425.01V425.01Z" fill="white"/>
<path d="M140.918 230.683C175.667 230.683 203.836 204.075 203.836 171.252C203.836 138.429 175.667 111.82 140.918 111.82C106.169 111.82 78 138.429 78 171.252C78 204.075 106.169 230.683 140.918 230.683Z" fill="#E4E4E4"/>
<path d="M140.918 220.777C169.875 220.777 193.35 198.604 193.35 171.251C193.35 143.899 169.875 121.725 140.918 121.725C111.961 121.725 88.4863 143.899 88.4863 171.251C88.4863 198.604 111.961 220.777 140.918 220.777Z" fill="black"/>
<path d="M308 230.683C342.749 230.683 370.918 204.075 370.918 171.252C370.918 138.429 342.749 111.82 308 111.82C273.251 111.82 245.082 138.429 245.082 171.252C245.082 204.075 273.251 230.683 308 230.683Z" fill="#E4E4E4"/>
<path d="M308 220.777C336.957 220.777 360.432 198.604 360.432 171.251C360.432 143.899 336.957 121.725 308 121.725C279.043 121.725 255.568 143.899 255.568 171.251C255.568 198.604 279.043 220.777 308 220.777Z" fill="white"/>
<path d="M475.082 230.683C509.831 230.683 538 204.075 538 171.252C538 138.429 509.831 111.82 475.082 111.82C440.333 111.82 412.164 138.429 412.164 171.252C412.164 204.075 440.333 230.683 475.082 230.683Z" fill="#E4E4E4"/>
<path d="M475.082 220.777C504.039 220.777 527.514 198.604 527.514 171.251C527.514 143.899 504.039 121.725 475.082 121.725C446.125 121.725 422.65 143.899 422.65 171.251C422.65 198.604 446.125 220.777 475.082 220.777Z" fill="white"/>
<path d="M136.463 189.161C136.369 189.161 136.275 189.159 136.181 189.155C135.352 189.117 134.541 188.91 133.804 188.549C133.068 188.187 132.423 187.679 131.913 187.06L123.87 177.292C122.934 176.152 122.514 174.708 122.704 173.276C122.893 171.845 123.676 170.542 124.881 169.655L125.17 169.442C126.377 168.558 127.906 168.161 129.422 168.34C130.938 168.519 132.317 169.259 133.256 170.397C133.71 170.947 134.283 171.399 134.939 171.72C135.594 172.042 136.315 172.226 137.052 172.26C137.79 172.294 138.526 172.177 139.212 171.917C139.897 171.657 140.514 171.261 141.022 170.754L157.353 154.471C157.873 153.952 158.497 153.535 159.188 153.243C159.879 152.952 160.624 152.792 161.381 152.773C162.137 152.754 162.89 152.875 163.597 153.131C164.303 153.387 164.95 153.771 165.499 154.263L165.766 154.501C166.875 155.494 167.521 156.863 167.563 158.305C167.604 159.748 167.037 161.148 165.986 162.195L140.644 187.462C140.106 187.999 139.458 188.426 138.739 188.719C138.02 189.011 137.245 189.161 136.463 189.161V189.161Z" fill="white"/>
<path d="M280.386 159.218H238.973V125.197C239.016 123.091 239.941 121.086 241.545 119.623C243.15 118.16 245.304 117.357 247.534 117.392H261.3C271.824 117.392 280.386 125.198 280.386 134.794V159.218Z" fill="#2F2E41"/>
<path d="M295.718 443.898L287.856 443.897L284.116 415.254L295.719 415.255L295.718 443.898Z" fill="#FFB6B6"/>
<path d="M297.723 451.096L272.373 451.095V450.793C272.373 448.321 273.413 445.95 275.263 444.203C277.113 442.455 279.623 441.473 282.24 441.473H282.24L297.723 441.473L297.723 451.096Z" fill="#2F2E41"/>
<path d="M223.255 443.898L215.393 443.897L211.653 415.254L223.256 415.255L223.255 443.898Z" fill="#FFB6B6"/>
<path d="M225.26 451.096L199.91 451.095V450.793C199.91 448.321 200.95 445.95 202.8 444.203C204.651 442.455 207.16 441.473 209.777 441.473H209.778L225.26 441.473L225.26 451.096Z" fill="#2F2E41"/>
<path d="M232.747 213.781L227.617 244.674L276.353 245.279L269.94 215.599L232.747 213.781Z" fill="#FFB6B6"/>
<path d="M229.031 237.131L213.509 276.172L211.585 437.963H224.731L256.153 307.973L285.01 434.57H297.835L288.858 292.224C288.858 292.224 291.505 263.653 277.956 246.794L274.658 237.794L229.031 237.131Z" fill="#2F2E41"/>
<path d="M295.613 267.566C294.256 267.216 292.997 266.59 291.924 265.731C290.851 264.873 289.99 263.802 289.402 262.595C288.815 261.388 288.514 260.074 288.522 258.745C288.53 257.417 288.847 256.106 289.449 254.906L268.716 191.057L283.966 188.201L302.928 250.787C304.996 251.876 306.57 253.644 307.35 255.756C308.13 257.868 308.062 260.177 307.161 262.245C306.259 264.314 304.585 265.997 302.457 266.978C300.329 267.959 297.894 268.168 295.613 267.566H295.613Z" fill="#FFB6B6"/>
<path d="M268.175 230.842L234.58 230.23C233.62 230.21 232.693 229.894 231.941 229.33C231.189 228.765 230.654 227.984 230.417 227.104C228.616 220.369 224.654 202.815 226.755 185.332C227.17 181.945 228.3 178.672 230.078 175.704C231.856 172.737 234.245 170.137 237.106 168.057C239.966 165.978 243.239 164.461 246.731 163.598C250.223 162.734 253.862 162.541 257.434 163.029C261.203 163.539 264.814 164.795 268.033 166.716C271.251 168.637 274.003 171.179 276.107 174.175C278.212 177.171 279.623 180.553 280.247 184.101C280.87 187.648 280.693 191.28 279.726 194.758C275.497 209.927 273.108 220.779 272.626 227.014C272.555 227.915 272.173 228.77 271.539 229.447C270.905 230.124 270.054 230.587 269.116 230.764V230.764C268.837 230.816 268.553 230.843 268.268 230.843C268.237 230.843 268.206 230.843 268.175 230.842Z" fill="#E4E4E4"/>
<path d="M166.128 174.758C166.33 175.186 166.495 175.628 166.624 176.08L208.675 189.577L216.801 182.872L229.116 193.133L215.953 206.323C214.889 207.389 213.489 208.1 211.961 208.35C210.433 208.6 208.861 208.374 207.481 207.708L162.483 185.997C160.856 186.94 158.963 187.393 157.057 187.295C155.151 187.197 153.321 186.553 151.812 185.449C150.303 184.345 149.185 182.833 148.607 181.114C148.03 179.395 148.02 177.551 148.579 175.827C149.138 174.103 150.24 172.581 151.737 171.462C153.235 170.344 155.057 169.683 156.963 169.567C158.868 169.451 160.765 169.885 162.402 170.813C164.039 171.74 165.339 173.116 166.128 174.758V174.758Z" fill="#FFB6B6"/>
<path d="M208.762 187.425C208.765 186.878 208.893 186.338 209.138 185.842C209.382 185.346 209.737 184.906 210.178 184.551L225.575 172.162C227.524 170.053 230.278 168.76 233.235 168.566C236.191 168.373 239.108 169.295 241.346 171.13C243.583 172.965 244.959 175.564 245.171 178.356C245.383 181.148 244.414 183.906 242.477 186.024L231.512 202.152C231.199 202.613 230.785 203.004 230.298 203.299C229.81 203.595 229.261 203.787 228.688 203.864C228.114 203.941 227.53 203.9 226.975 203.745C226.42 203.589 225.907 203.322 225.47 202.962L210.141 190.315C209.704 189.955 209.355 189.511 209.117 189.012C208.879 188.513 208.758 187.972 208.762 187.425V187.425Z" fill="#E4E4E4"/>
<path d="M267.787 207.229C267.274 206.975 266.826 206.619 266.473 206.186C266.119 205.752 265.869 205.252 265.738 204.719L261.186 186.104C260.102 183.499 260.155 180.594 261.335 178.027C262.514 175.459 264.724 173.438 267.479 172.407C270.234 171.376 273.309 171.419 276.03 172.526C278.751 173.634 280.897 175.716 281.996 178.315L292.103 194.935C292.391 195.41 292.568 195.937 292.621 196.482C292.675 197.027 292.603 197.576 292.411 198.092C292.219 198.608 291.912 199.079 291.51 199.473C291.108 199.867 290.621 200.174 290.082 200.374L271.138 207.404C270.599 207.605 270.021 207.693 269.442 207.662C268.864 207.632 268.299 207.485 267.787 207.229Z" fill="#E4E4E4"/>
<path d="M284.084 120.716C285.64 117.276 282.965 112.9 278.109 110.941C273.254 108.982 268.057 110.182 266.502 113.621C264.946 117.061 267.621 121.438 272.476 123.397C277.332 125.356 282.529 124.156 284.084 120.716Z" fill="#2F2E41"/>
<path d="M269.022 146.283C274.216 137.308 270.724 126.055 261.223 121.149C251.721 116.242 239.808 119.541 234.614 128.516C229.42 137.491 232.912 148.744 242.413 153.651C251.915 158.557 263.828 155.258 269.022 146.283Z" fill="#FFB6B6"/>
<path d="M262.574 116.188H240.147C238.503 116.168 236.911 116.736 235.692 117.778C234.472 118.819 233.715 120.258 233.571 121.806C233.513 122.628 233.635 123.453 233.928 124.229C234.221 125.005 234.68 125.716 235.276 126.318C235.872 126.919 236.592 127.399 237.393 127.727C238.193 128.055 239.056 128.224 239.929 128.224V128.224C241.618 128.224 243.239 128.858 244.434 129.987C245.629 131.116 246.3 132.646 246.3 134.242V158.917H281.341V133.915C281.341 131.587 280.856 129.282 279.913 127.131C278.97 124.981 277.587 123.026 275.845 121.38C274.102 119.734 272.033 118.428 269.756 117.537C267.479 116.647 265.039 116.188 262.574 116.188V116.188Z" fill="#2F2E41"/>
<path d="M373.129 452H130.387C130.218 452 130.056 451.937 129.936 451.824C129.817 451.711 129.75 451.558 129.75 451.398C129.75 451.239 129.817 451.086 129.936 450.973C130.056 450.86 130.218 450.796 130.387 450.796H373.129C373.298 450.796 373.46 450.86 373.58 450.973C373.699 451.086 373.766 451.239 373.766 451.398C373.766 451.558 373.699 451.711 373.58 451.824C373.46 451.937 373.298 452 373.129 452Z" fill="#CACACA"/>
</g>
</g>
<defs>
<linearGradient id="paint0_linear" x1="281.193" y1="513.576" x2="281.193" y2="0" gradientUnits="userSpaceOnUse">
<stop stop-color="#7094FB"/>
<stop offset="1" stop-color="#F31E61"/>
</linearGradient>
<linearGradient id="paint1_linear" x1="760602" y1="1.37283e+06" x2="760602" y2="0" gradientUnits="userSpaceOnUse">
<stop stop-color="#7094FB"/>
<stop offset="1" stop-color="#F31E61"/>
</linearGradient>
<linearGradient id="paint2_linear" x1="96.0174" y1="503.551" x2="566.274" y2="119.99" gradientUnits="userSpaceOnUse">
<stop stop-color="#F31E61"/>
<stop offset="1" stop-color="#7094FB"/>
</linearGradient>
<clipPath id="clip0">
<rect width="591" height="576" fill="white"/>
</clipPath>
<clipPath id="clip1">
<rect width="460" height="342" fill="white" transform="translate(78 110)"/>
</clipPath>
</defs>
</svg>
